#N canvas 65 42 1062 940 10;
#X msg 67 189 devices;
#X obj 153 269 comport 1 9600;
#X obj 277 347 tgl 15 0 empty empty empty 17 7 0 10 -4034 -1 -1 0 1
;
#X floatatom 234 345 5 0 0 3 port - -;
#X msg 187 149 close;
#X msg 185 230 info;
#X obj 234 314 route port open;
#X obj 126 191 t b a;
#X floatatom 152 456 6 0 0 0 - - -;
#X text 38 456 valeur du capteur;
#X obj 568 338 tgl 15 0 empty empty empty 17 7 0 10 -4034 -1 -1 1 1
;
#X msg 658 270 disconnect;
#X obj 152 478 s ARDUINO;
#X obj 568 120 r ARDUINO;
#X obj 568 220 spigot;
#X obj 15 17 cnv 15 100 40 empty empty ARDUINO 20 20 0 14 -228856 -66577
0;
#X obj 126 125 hradio 15 1 0 8 empty empty empty 0 -8 0 10 -262144
-1 -1 3;
#X msg 126 149 open \$1;
#X text 124 106 serial port;
#X obj 504 17 cnv 15 70 40 empty empty OSC 20 20 0 14 -204800 -66577
0;
#X text 122 24 Installer les externals: comport (essentiel) \, tof
(optionnel) \, mrpeach pour l'OSC (optionnel);
#X obj 152 401 tof/from_ascii_code 13;
#X text 402 120 données reçu d'Arduino -->;
#X msg 568 147 send /arduino/sensor \$1;
#X text 584 29 http://opensoundcontrol.org/introduction-osc;
#X text 402 172 création du paquet OSC -->;
#X text 408 311 envois des paquets OSC -->;
#X text 654 222 CONNEXION vers IP PORT;
#X obj 568 171 mrpeach/packOSC;
#X obj 568 310 mrpeach/udpsend;
#X obj 152 429 route potar;
#X obj 453 778 tgl 47 0 empty empty DSP 6 24 0 20 -257985 -1 -1 0 1
;
#X obj 873 134 hsl 128 15 0 1 0 0 empty empty empty -2 -8 0 10 -262144
-1 -1 5600 1;
#X msg 870 154 send /ball/position \$1;
#X obj 628 441 delay 3000;
#X obj 628 466 bng 15 250 50 0 empty empty empty 17 7 0 10 -262144
-1 -1;
#X obj 628 416 sel 0;
#X msg 650 243 connect 127.0.0.1 54321;
#X obj 576 576 unpackOSC;
#X obj 576 552 udpreceive 12345;
#X msg 453 834 \; pd dsp \$1;
#X obj 685 890 dac~;
#X obj 722 860 *~ 0.1;
#X obj 665 860 *~ 0.1;
#X msg 628 741 1, f 2;
#X obj 678 781 readsf~ 2;
#X obj 875 729 vsl 15 128 0 1 0 0 empty empty VOLUME -10 -10 0 10 -257985
-1 -1 12700 1;
#X obj 576 598 routeOSC /test;
#X obj 576 682 sel 0 1;
#X obj 628 717 t f b;
#X msg 628 765 0;
#X msg 677 758 open data/cerro_pelon.wav;
#X text 869 115 donnée envoyée à Processing;
#X text 342 147 message OSC (adresse + argument) -->;
#X text 706 440 <-- attente de 3 sec avant reconnexion automatique
;
#X text 559 741 start -->;
#X text 566 765 stop -->;
#X text 689 598 <-- routing des message OSC en fonction des adresses
;
#X text 689 551 <-- port d'écoute des données UDP (reception OSC)
;
#X text 690 574 <-- décompression des packets OSC;
#X text 505 81 ------- ENVOI OSC ------------------------------------------
;
#X text 505 508 ------- RECEPTION OSC --------------------------------------
;
#X text 505 651 ----------------------------- TRAITEMENT DES DONNÉES
-------;
#X connect 0 0 1 0;
#X connect 1 0 21 0;
#X connect 1 1 6 0;
#X connect 4 0 7 0;
#X connect 5 0 1 0;
#X connect 6 0 3 0;
#X connect 6 1 2 0;
#X connect 7 0 5 0;
#X connect 7 1 1 0;
#X connect 8 0 12 0;
#X connect 10 0 14 1;
#X connect 10 0 36 0;
#X connect 11 0 29 0;
#X connect 13 0 23 0;
#X connect 14 0 29 0;
#X connect 16 0 17 0;
#X connect 17 0 7 0;
#X connect 21 0 30 0;
#X connect 23 0 28 0;
#X connect 28 0 14 0;
#X connect 29 0 10 0;
#X connect 30 0 8 0;
#X connect 31 0 40 0;
#X connect 32 0 33 0;
#X connect 33 0 28 0;
#X connect 34 0 35 0;
#X connect 35 0 37 0;
#X connect 36 0 34 0;
#X connect 37 0 29 0;
#X connect 38 0 47 0;
#X connect 39 0 38 0;
#X connect 42 0 41 1;
#X connect 43 0 41 0;
#X connect 44 0 45 0;
#X connect 45 0 43 0;
#X connect 45 1 42 0;
#X connect 46 0 43 1;
#X connect 46 0 42 1;
#X connect 47 0 48 0;
#X connect 47 0 31 0;
#X connect 48 0 50 0;
#X connect 48 1 49 0;
#X connect 49 0 44 0;
#X connect 49 1 51 0;
#X connect 50 0 45 0;
#X connect 51 0 45 0;
