#N canvas 2941 0 1214 572 10;
#X floatatom 355 106 3 0 0 0 from - -;
#X floatatom 382 106 3 0 0 0 - - -;
#X floatatom 409 106 3 0 0 0 - - -;
#X floatatom 436 106 3 0 0 0 - - -;
#X obj 355 82 unpack 0 0 0 0 0;
#X floatatom 464 106 8 0 0 0 - - -;
#X obj 300 59 route received from;
#X floatatom 300 127 5 0 0 0 bytes - -;
#X floatatom 165 252 5 0 0 0 - - -;
#X text 66 252 number of blobs;
#X floatatom 250 400 5 0 0 0 x - -;
#X floatatom 250 420 5 0 0 0 y - -;
#X text 170 409 centroid;
#X floatatom 250 456 5 0 0 0 x - -;
#X floatatom 250 476 5 0 0 0 y - -;
#X text 165 477 rectangle;
#X floatatom 250 496 5 0 0 0 w - -;
#X floatatom 250 516 5 0 0 0 h - -;
#N canvas 371 240 657 291 unpack_osc_blob 0;
#X obj 69 59 inlet;
#X obj 205 201 outlet;
#X obj 137 152 outlet;
#X obj 69 152 outlet;
#X obj 205 174 unpack f f;
#X obj 272 201 outlet;
#X obj 332 201 outlet;
#X obj 393 201 outlet;
#X obj 384 174 unpack f f f f;
#X obj 458 201 outlet;
#X obj 513 201 outlet;
#X text 403 153 rectangle;
#X text 216 153 centroid;
#X obj 583 132 outlet;
#X text 575 109 is hole;
#X text 135 177 length;
#X text 76 176 area;
#X obj 69 115 mrpeach/routeOSC /area /length /centroid /rectangle /hole
;
#X connect 0 0 17 0;
#X connect 4 0 1 0;
#X connect 4 1 5 0;
#X connect 8 0 6 0;
#X connect 8 1 7 0;
#X connect 8 2 9 0;
#X connect 8 3 10 0;
#X connect 17 0 3 0;
#X connect 17 1 2 0;
#X connect 17 2 4 0;
#X connect 17 3 8 0;
#X connect 17 4 13 0;
#X restore 250 305 pd unpack_osc_blob;
#X obj 612 19 cnv 15 580 480 empty empty OSC_BLOBTRACKER_CONFIG 20
20 0 14 -228856 -159808 0;
#X msg 1008 398 disconnect;
#X obj 988 459 tgl 15 0 empty empty connected 20 8 0 8 -4034 -1 -1
0 1;
#X msg 988 85 send /blobs/min_area \$1;
#X floatatom 942 88 5 0 0 0 - - -;
#X floatatom 941 129 5 0 0 0 - - -;
#X msg 988 128 send /blobs/max_area \$1;
#X floatatom 941 172 5 0 0 0 - - -;
#X obj 961 214 tgl 15 0 empty empty empty 17 7 0 10 -262144 -1 -1 0
1;
#X msg 988 171 send /blobs/max \$1;
#X msg 988 213 send /blobs/holes \$1;
#X text 790 213 find holes (default ON);
#X text 658 172 considered number of blobs (default 10);
#X text 757 86 minimum area (default 20);
#X msg 1005 372 connect 127.0.0.1 4433;
#X text 657 128 maximum area (default 1/3 image camera);
#X obj 165 181 mrpeach/unpackOSC;
#X obj 165 212 mrpeach/routeOSC /blobs /blob;
#X obj 988 424 mrpeach/udpsend;
#X obj 250 280 mrpeach/routeOSC /0;
#X obj 988 296 mrpeach/packOSC;
#X obj 165 35 mrpeach/udpreceive 54321;
#X connect 4 0 0 0;
#X connect 4 1 1 0;
#X connect 4 2 2 0;
#X connect 4 3 3 0;
#X connect 4 4 5 0;
#X connect 6 0 7 0;
#X connect 6 1 4 0;
#X connect 18 2 10 0;
#X connect 18 3 11 0;
#X connect 18 4 13 0;
#X connect 18 5 14 0;
#X connect 18 6 16 0;
#X connect 18 7 17 0;
#X connect 20 0 37 0;
#X connect 22 0 39 0;
#X connect 23 0 22 0;
#X connect 24 0 25 0;
#X connect 25 0 39 0;
#X connect 26 0 28 0;
#X connect 27 0 29 0;
#X connect 28 0 39 0;
#X connect 29 0 39 0;
#X connect 33 0 37 0;
#X connect 35 0 36 0;
#X connect 36 0 8 0;
#X connect 36 1 38 0;
#X connect 37 0 21 0;
#X connect 38 0 18 0;
#X connect 39 0 37 0;
#X connect 40 0 35 0;
#X connect 40 1 6 0;
