#N canvas 2262 0 1292 1058 10;
#X obj 48 495 dac~ 1 2 3 4;
#X obj 47 181 vsl 15 128 0 1 0 0 empty empty empty 0 -9 0 10 -262144
-1 -1 5800 1;
#X obj 103 188 vsl 15 128 0 1 0 0 empty empty empty 0 -9 0 10 -262144
-1 -1 6900 1;
#X floatatom 108 389 5 0 0 0 - - -;
#X floatatom 52 338 5 0 0 0 - - -;
#X obj 19 397 *~ 0;
#X obj 64 396 *~ 0;
#X obj 663 357 env~ 8192;
#X obj 632 384 i;
#X floatatom 632 405 5 0 0 0 - - -;
#X obj 409 468 vu 15 120 empty empty -1 -8 0 10 -66577 -1 1 0;
#X obj 403 389 - 100;
#X msg 547 226 \$1 20;
#X obj 547 246 line~;
#X obj 535 269 *~;
#X text 548 167 volume d'entrée;
#X obj 550 186 hsl 128 15 0 6 0 0 empty empty empty -2 -8 0 10 -4032
-1 -1 8400 1;
#X floatatom 547 206 5 0 0 0 - - -;
#X text 573 276 <-- multiplication du signal audio avec le niveau d'entrée
;
#X obj 401 347 env~ 8192;
#X text 678 403 <-- valeur numérique du signal d'entrée;
#X floatatom 408 605 6 0 0 0 - - -;
#X text 458 605 niveau en dB (RMS \, root mean square);
#X obj 365 393 i;
#X floatatom 365 414 5 0 0 0 - - -;
#X text 44 153 VOLUME AUDIO OUTPUT;
#X obj 751 427 - 100;
#X floatatom 779 590 6 0 0 0 - - -;
#X obj 774 458 vu 15 120 empty empty -1 -8 0 10 -66577 -1 1 0;
#X obj 288 112 adc~ 1 2 3;
#X obj 988 296 vu 15 120 empty empty -1 -8 0 10 -66577 -1 1 0;
#X obj 982 217 - 100;
#X obj 980 175 env~ 8192;
#X floatatom 987 433 6 0 0 0 - - -;
#X text 1037 433 niveau en dB (RMS \, root mean square);
#X obj 944 221 i;
#X floatatom 944 242 5 0 0 0 - - -;
#X text 991 137 MIC;
#X text 329 344 PIEZO 1;
#X text 674 334 PIEZO 2;
#X obj 217 205 vsl 15 128 0 1 0 0 empty empty empty 0 -9 0 10 -262144
-1 -1 12700 1;
#X floatatom 222 362 5 0 0 0 - - -;
#X obj 189 421 *~ 0;
#X obj 352 976 tgl 15 0 empty empty empty 17 7 0 10 -4034 -1 -1 1 1
;
#X msg 442 908 disconnect;
#X obj 352 858 spigot;
#X text 132 786 message OSC (adresse + argument) -->;
#X text 192 811 création du paquet OSC -->;
#X text 192 949 envois des paquets OSC -->;
#X text 438 860 CONNEXION vers IP PORT;
#X obj 352 810 mrpeach/packOSC;
#X obj 352 948 mrpeach/udpsend;
#X msg 434 882 connect 127.0.0.1 7000;
#X msg 352 785 send /piezo/one \$1;
#X msg 618 790 send /piezo/two \$1;
#N canvas 550 194 482 356 dsp 0;
#X obj 101 212 select 0 1;
#X msg 134 234 6;
#X obj 101 43 route dsp;
#X obj 101 22 receive pd;
#X obj 215 124 loadbang;
#X msg 20 206 dsp \$1;
#X obj 20 231 send pd;
#X msg 215 264 set \$1;
#X obj 215 160 value GLOBAL_PDDP_DSP;
#X msg 118 264 color \$1 20 12;
#X obj 189 295 send \$0-dsp-toggle;
#X obj 101 101 change;
#X msg 101 233 0;
#X obj 20 20 tgl 40 0 THIS_IS_HERE_TO_GET_RID_OF_THE_OUTLET \$0-dsp-toggle
dsp 4 20 1 20 -262144 -195568 -33289 0 1;
#X connect 0 0 12 0;
#X connect 0 1 1 0;
#X connect 1 0 9 0;
#X connect 2 0 11 0;
#X connect 3 0 2 0;
#X connect 4 0 8 0;
#X connect 5 0 6 0;
#X connect 7 0 10 0;
#X connect 8 0 7 0;
#X connect 8 0 0 0;
#X connect 9 0 10 0;
#X connect 11 0 7 0;
#X connect 11 0 0 0;
#X connect 11 0 8 0;
#X connect 12 0 9 0;
#X connect 13 0 11 0;
#X connect 13 0 5 0;
#X coords 0 -1 1 1 40 40 1 20 20;
#X restore 28 31 pd dsp;
#X text 81 44 <-- active / désactive le DSP (Digital signal processing)
;
#X connect 1 0 4 0;
#X connect 1 0 5 1;
#X connect 2 0 3 0;
#X connect 2 0 6 1;
#X connect 5 0 0 0;
#X connect 6 0 0 1;
#X connect 7 0 8 0;
#X connect 7 0 26 0;
#X connect 8 0 9 0;
#X connect 9 0 54 0;
#X connect 10 0 21 0;
#X connect 11 0 10 0;
#X connect 12 0 13 0;
#X connect 13 0 14 1;
#X connect 14 0 19 0;
#X connect 14 0 7 0;
#X connect 14 0 32 0;
#X connect 16 0 17 0;
#X connect 17 0 12 0;
#X connect 19 0 11 0;
#X connect 19 0 23 0;
#X connect 23 0 24 0;
#X connect 24 0 53 0;
#X connect 26 0 28 0;
#X connect 28 0 27 0;
#X connect 29 0 5 0;
#X connect 29 0 19 0;
#X connect 29 1 6 0;
#X connect 29 1 7 0;
#X connect 29 2 32 0;
#X connect 29 2 42 0;
#X connect 30 0 33 0;
#X connect 31 0 30 0;
#X connect 32 0 31 0;
#X connect 32 0 35 0;
#X connect 35 0 36 0;
#X connect 40 0 41 0;
#X connect 40 0 42 1;
#X connect 42 0 0 1;
#X connect 43 0 45 1;
#X connect 44 0 51 0;
#X connect 45 0 51 0;
#X connect 50 0 45 0;
#X connect 51 0 43 0;
#X connect 52 0 51 0;
#X connect 53 0 50 0;
#X connect 54 0 50 0;
